<mxfile host="app.diagrams.net" modified="2023-05-02T03:33:23.650Z" agent="Mozilla/5.0 (X11; Linux x86_64; rv:109.0) Gecko/20100101 Firefox/111.0" etag="IWYcJ15fJN2qxKvJ1BRV" version="21.2.1" type="device">
  <diagram name="Page-1" id="zNK1lhGiguyHzo0KmOAI">
    <mxGraphModel dx="1357" dy="810" grid="1" gridSize="10" guides="1" tooltips="1" connect="1" arrows="1" fold="1" page="1" pageScale="1" pageWidth="850" pageHeight="1100" math="0" shadow="0">
      <root>
        <mxCell id="0" />
        <mxCell id="1" parent="0" />
        <mxCell id="ly6dczpaaAu1sk4N1CAW-75" value="" style="shape=folder;fontStyle=1;spacingTop=10;tabWidth=110;tabHeight=50;tabPosition=left;html=1;whiteSpace=wrap;" vertex="1" parent="1">
          <mxGeometry x="10" y="370" width="850" height="680" as="geometry" />
        </mxCell>
        <mxCell id="ly6dczpaaAu1sk4N1CAW-74" value="" style="edgeStyle=orthogonalEdgeStyle;rounded=0;orthogonalLoop=1;jettySize=auto;html=1;" edge="1" parent="1" source="ly6dczpaaAu1sk4N1CAW-34" target="ly6dczpaaAu1sk4N1CAW-73">
          <mxGeometry relative="1" as="geometry">
            <Array as="points">
              <mxPoint x="400" y="610" />
              <mxPoint x="400" y="610" />
            </Array>
          </mxGeometry>
        </mxCell>
        <mxCell id="ly6dczpaaAu1sk4N1CAW-34" value="&lt;b&gt;Filter&lt;/b&gt;" style="swimlane;fontStyle=0;childLayout=stackLayout;horizontal=1;startSize=26;fillColor=none;horizontalStack=0;resizeParent=1;resizeParentMax=0;resizeLast=0;collapsible=1;marginBottom=0;whiteSpace=wrap;html=1;" vertex="1" parent="1">
          <mxGeometry x="330" y="650" width="140" height="52" as="geometry" />
        </mxCell>
        <mxCell id="ly6dczpaaAu1sk4N1CAW-35" value="&lt;div&gt;+ filter(message)&lt;/div&gt;&lt;div&gt;&lt;br&gt;&lt;/div&gt;" style="text;strokeColor=none;fillColor=none;align=left;verticalAlign=top;spacingLeft=4;spacingRight=4;overflow=hidden;rotatable=0;points=[[0,0.5],[1,0.5]];portConstraint=eastwest;whiteSpace=wrap;html=1;" vertex="1" parent="ly6dczpaaAu1sk4N1CAW-34">
          <mxGeometry y="26" width="140" height="26" as="geometry" />
        </mxCell>
        <mxCell id="ly6dczpaaAu1sk4N1CAW-54" style="edgeStyle=orthogonalEdgeStyle;rounded=0;orthogonalLoop=1;jettySize=auto;html=1;entryX=0.499;entryY=1.033;entryDx=0;entryDy=0;entryPerimeter=0;" edge="1" parent="1" source="ly6dczpaaAu1sk4N1CAW-37" target="ly6dczpaaAu1sk4N1CAW-35">
          <mxGeometry relative="1" as="geometry" />
        </mxCell>
        <mxCell id="ly6dczpaaAu1sk4N1CAW-37" value="&lt;b&gt;Numeric Range &lt;/b&gt;" style="swimlane;fontStyle=0;childLayout=stackLayout;horizontal=1;startSize=26;fillColor=none;horizontalStack=0;resizeParent=1;resizeParentMax=0;resizeLast=0;collapsible=1;marginBottom=0;whiteSpace=wrap;html=1;" vertex="1" parent="1">
          <mxGeometry x="220" y="770" width="140" height="78" as="geometry" />
        </mxCell>
        <mxCell id="ly6dczpaaAu1sk4N1CAW-38" value="+ low: float" style="text;strokeColor=none;fillColor=none;align=left;verticalAlign=top;spacingLeft=4;spacingRight=4;overflow=hidden;rotatable=0;points=[[0,0.5],[1,0.5]];portConstraint=eastwest;whiteSpace=wrap;html=1;" vertex="1" parent="ly6dczpaaAu1sk4N1CAW-37">
          <mxGeometry y="26" width="140" height="26" as="geometry" />
        </mxCell>
        <mxCell id="ly6dczpaaAu1sk4N1CAW-39" value="+ high: float" style="text;strokeColor=none;fillColor=none;align=left;verticalAlign=top;spacingLeft=4;spacingRight=4;overflow=hidden;rotatable=0;points=[[0,0.5],[1,0.5]];portConstraint=eastwest;whiteSpace=wrap;html=1;" vertex="1" parent="ly6dczpaaAu1sk4N1CAW-37">
          <mxGeometry y="52" width="140" height="26" as="geometry" />
        </mxCell>
        <mxCell id="ly6dczpaaAu1sk4N1CAW-55" style="edgeStyle=orthogonalEdgeStyle;rounded=0;orthogonalLoop=1;jettySize=auto;html=1;entryX=0.495;entryY=1.011;entryDx=0;entryDy=0;entryPerimeter=0;" edge="1" parent="1" source="ly6dczpaaAu1sk4N1CAW-50" target="ly6dczpaaAu1sk4N1CAW-35">
          <mxGeometry relative="1" as="geometry" />
        </mxCell>
        <mxCell id="ly6dczpaaAu1sk4N1CAW-50" value="&lt;b&gt;String Equality&lt;/b&gt;" style="swimlane;fontStyle=0;childLayout=stackLayout;horizontal=1;startSize=26;fillColor=none;horizontalStack=0;resizeParent=1;resizeParentMax=0;resizeLast=0;collapsible=1;marginBottom=0;whiteSpace=wrap;html=1;" vertex="1" parent="1">
          <mxGeometry x="640" y="770" width="140" height="52" as="geometry" />
        </mxCell>
        <mxCell id="ly6dczpaaAu1sk4N1CAW-51" value="+value: str" style="text;strokeColor=none;fillColor=none;align=left;verticalAlign=top;spacingLeft=4;spacingRight=4;overflow=hidden;rotatable=0;points=[[0,0.5],[1,0.5]];portConstraint=eastwest;whiteSpace=wrap;html=1;" vertex="1" parent="ly6dczpaaAu1sk4N1CAW-50">
          <mxGeometry y="26" width="140" height="26" as="geometry" />
        </mxCell>
        <mxCell id="ly6dczpaaAu1sk4N1CAW-65" style="edgeStyle=orthogonalEdgeStyle;rounded=0;orthogonalLoop=1;jettySize=auto;html=1;entryX=0.5;entryY=0.962;entryDx=0;entryDy=0;entryPerimeter=0;" edge="1" parent="1" source="ly6dczpaaAu1sk4N1CAW-56" target="ly6dczpaaAu1sk4N1CAW-39">
          <mxGeometry relative="1" as="geometry" />
        </mxCell>
        <mxCell id="ly6dczpaaAu1sk4N1CAW-56" value="&lt;b&gt;Filter by year&lt;/b&gt;" style="swimlane;fontStyle=0;childLayout=stackLayout;horizontal=1;startSize=26;fillColor=none;horizontalStack=0;resizeParent=1;resizeParentMax=0;resizeLast=0;collapsible=1;marginBottom=0;whiteSpace=wrap;html=1;" vertex="1" parent="1">
          <mxGeometry x="20" y="940" width="140" height="52" as="geometry" />
        </mxCell>
        <mxCell id="ly6dczpaaAu1sk4N1CAW-63" value="" style="edgeStyle=orthogonalEdgeStyle;rounded=0;orthogonalLoop=1;jettySize=auto;html=1;" edge="1" parent="1" source="ly6dczpaaAu1sk4N1CAW-58" target="ly6dczpaaAu1sk4N1CAW-39">
          <mxGeometry relative="1" as="geometry">
            <Array as="points">
              <mxPoint x="290" y="870" />
              <mxPoint x="290" y="870" />
            </Array>
          </mxGeometry>
        </mxCell>
        <mxCell id="ly6dczpaaAu1sk4N1CAW-58" value="&lt;b&gt;Filter by precipitation&lt;/b&gt;" style="swimlane;fontStyle=0;childLayout=stackLayout;horizontal=1;startSize=26;fillColor=none;horizontalStack=0;resizeParent=1;resizeParentMax=0;resizeLast=0;collapsible=1;marginBottom=0;whiteSpace=wrap;html=1;" vertex="1" parent="1">
          <mxGeometry x="170" y="940" width="140" height="52" as="geometry" />
        </mxCell>
        <mxCell id="ly6dczpaaAu1sk4N1CAW-64" style="edgeStyle=orthogonalEdgeStyle;rounded=0;orthogonalLoop=1;jettySize=auto;html=1;entryX=0.5;entryY=1;entryDx=0;entryDy=0;entryPerimeter=0;" edge="1" parent="1" source="ly6dczpaaAu1sk4N1CAW-59" target="ly6dczpaaAu1sk4N1CAW-39">
          <mxGeometry relative="1" as="geometry" />
        </mxCell>
        <mxCell id="ly6dczpaaAu1sk4N1CAW-59" value="&lt;b&gt;Filter by distance&lt;/b&gt;" style="swimlane;fontStyle=0;childLayout=stackLayout;horizontal=1;startSize=26;fillColor=none;horizontalStack=0;resizeParent=1;resizeParentMax=0;resizeLast=0;collapsible=1;marginBottom=0;whiteSpace=wrap;html=1;" vertex="1" parent="1">
          <mxGeometry x="470" y="940" width="140" height="52" as="geometry" />
        </mxCell>
        <mxCell id="ly6dczpaaAu1sk4N1CAW-67" style="edgeStyle=orthogonalEdgeStyle;rounded=0;orthogonalLoop=1;jettySize=auto;html=1;entryX=0.5;entryY=1;entryDx=0;entryDy=0;entryPerimeter=0;" edge="1" parent="1" source="ly6dczpaaAu1sk4N1CAW-66" target="ly6dczpaaAu1sk4N1CAW-39">
          <mxGeometry relative="1" as="geometry" />
        </mxCell>
        <mxCell id="ly6dczpaaAu1sk4N1CAW-66" value="&lt;b&gt;Filter by count&lt;/b&gt;" style="swimlane;fontStyle=0;childLayout=stackLayout;horizontal=1;startSize=26;fillColor=none;horizontalStack=0;resizeParent=1;resizeParentMax=0;resizeLast=0;collapsible=1;marginBottom=0;whiteSpace=wrap;html=1;" vertex="1" parent="1">
          <mxGeometry x="320" y="940" width="140" height="52" as="geometry" />
        </mxCell>
        <mxCell id="ly6dczpaaAu1sk4N1CAW-69" value="" style="edgeStyle=orthogonalEdgeStyle;rounded=0;orthogonalLoop=1;jettySize=auto;html=1;" edge="1" parent="1" source="ly6dczpaaAu1sk4N1CAW-68" target="ly6dczpaaAu1sk4N1CAW-51">
          <mxGeometry relative="1" as="geometry">
            <Array as="points">
              <mxPoint x="710" y="850" />
              <mxPoint x="710" y="850" />
            </Array>
          </mxGeometry>
        </mxCell>
        <mxCell id="ly6dczpaaAu1sk4N1CAW-68" value="&lt;b&gt;Filter by city&lt;/b&gt;" style="swimlane;fontStyle=0;childLayout=stackLayout;horizontal=1;startSize=26;fillColor=none;horizontalStack=0;resizeParent=1;resizeParentMax=0;resizeLast=0;collapsible=1;marginBottom=0;whiteSpace=wrap;html=1;" vertex="1" parent="1">
          <mxGeometry x="640" y="940" width="140" height="52" as="geometry" />
        </mxCell>
        <mxCell id="ly6dczpaaAu1sk4N1CAW-70" value="DAGNode" style="swimlane;fontStyle=1;align=center;verticalAlign=top;childLayout=stackLayout;horizontal=1;startSize=26;horizontalStack=0;resizeParent=1;resizeParentMax=0;resizeLast=0;collapsible=1;marginBottom=0;whiteSpace=wrap;html=1;" vertex="1" parent="1">
          <mxGeometry x="305" y="500" width="190" height="100" as="geometry" />
        </mxCell>
        <mxCell id="ly6dczpaaAu1sk4N1CAW-71" value="- rabbit_connection" style="text;strokeColor=none;fillColor=none;align=left;verticalAlign=top;spacingLeft=4;spacingRight=4;overflow=hidden;rotatable=0;points=[[0,0.5],[1,0.5]];portConstraint=eastwest;whiteSpace=wrap;html=1;" vertex="1" parent="ly6dczpaaAu1sk4N1CAW-70">
          <mxGeometry y="26" width="190" height="26" as="geometry" />
        </mxCell>
        <mxCell id="ly6dczpaaAu1sk4N1CAW-72" value="" style="line;strokeWidth=1;fillColor=none;align=left;verticalAlign=middle;spacingTop=-1;spacingLeft=3;spacingRight=3;rotatable=0;labelPosition=right;points=[];portConstraint=eastwest;strokeColor=inherit;" vertex="1" parent="ly6dczpaaAu1sk4N1CAW-70">
          <mxGeometry y="52" width="190" height="8" as="geometry" />
        </mxCell>
        <mxCell id="ly6dczpaaAu1sk4N1CAW-73" value="+ on_message_callback(message)" style="text;strokeColor=none;fillColor=none;align=left;verticalAlign=top;spacingLeft=4;spacingRight=4;overflow=hidden;rotatable=0;points=[[0,0.5],[1,0.5]];portConstraint=eastwest;whiteSpace=wrap;html=1;" vertex="1" parent="ly6dczpaaAu1sk4N1CAW-70">
          <mxGeometry y="60" width="190" height="40" as="geometry" />
        </mxCell>
        <mxCell id="ly6dczpaaAu1sk4N1CAW-76" value="Filter package" style="text;html=1;align=center;verticalAlign=middle;resizable=0;points=[];autosize=1;strokeColor=none;fillColor=none;" vertex="1" parent="1">
          <mxGeometry x="20" y="380" width="100" height="30" as="geometry" />
        </mxCell>
      </root>
    </mxGraphModel>
  </diagram>
</mxfile>
